<svg width="17.174805" height="17.000000" viewBox="0 0 17.1748 17" fill="none" xmlns="http://www.w3.org/2000/svg" xmlns:xlink="http://www.w3.org/1999/xlink">
	<desc>
			Created with Pixso.
	</desc>
	<defs/>
	<path id="Stroke_1-46_2_" d="M0.5 13.96C0.5 15.97 3.38 16.5 6.7 16.5C10.03 16.5 12.91 15.97 12.91 13.96C12.91 11.95 10.11 11.42 6.7 11.42C3.38 11.42 0.5 11.95 0.5 13.96Z" stroke="#FFFFFF" stroke-opacity="1.000000" stroke-width="1.000000" stroke-linejoin="round"/>
	<path id="Stroke_3-42_2_" d="M10.72 4.52C10.72 2.24 8.98 0.5 6.7 0.5C4.43 0.5 2.68 2.24 2.68 4.52C2.77 6.7 4.52 8.54 6.7 8.54C8.89 8.54 10.72 6.79 10.72 4.52Z" stroke="#FFFFFF" stroke-opacity="1.000000" stroke-width="1.000000" stroke-linejoin="round"/>
	<path id="Stroke_5-27_2_" d="M14.92 5.74L14.92 9.24" stroke="#FFFFFF" stroke-opacity="1.000000" stroke-width="1.000000" stroke-linejoin="round" stroke-linecap="round"/>
	<path id="Stroke_7-20_2_" d="M16.67 7.49L13.08 7.49" stroke="#FFFFFF" stroke-opacity="1.000000" stroke-width="1.000000" stroke-linejoin="round" stroke-linecap="round"/>
</svg>
