<svg width="13.000000" height="12.000000" viewBox="0 0 13 12" fill="none" xmlns="http://www.w3.org/2000/svg" xmlns:xlink="http://www.w3.org/1999/xlink">
	<desc>
			Created with Pixso.
	</desc>
	<defs/>
	<path id="Danger-5" d="M1.81 11.99L1.73 11.99C1.58 11.98 1.43 11.96 1.28 11.91L1.13 11.86C0.69 11.67 0.34 11.32 0.15 10.88C-0.04 10.43 -0.06 9.93 0.11 9.48L0.15 9.37L4.88 0.96C5 0.75 5.16 0.56 5.34 0.4C5.53 0.25 5.75 0.14 5.98 0.07C6.22 0 6.46 -0.02 6.7 0.01C6.94 0.03 7.17 0.11 7.39 0.23C7.65 0.38 7.87 0.59 8.04 0.85L8.1 0.96L12.86 9.42C12.99 9.74 13.03 10.08 12.97 10.42C12.92 10.76 12.77 11.08 12.55 11.33C12.25 11.7 11.81 11.94 11.34 12L1.81 12L1.81 11.99ZM11.21 11C11.43 10.98 11.65 10.88 11.8 10.71C11.95 10.54 12.03 10.31 12.03 10.08L12.03 9.92L12.03 9.85L7.28 1.44C7.17 1.23 6.99 1.09 6.77 1.02C6.55 0.96 6.31 0.98 6.11 1.09C6 1.16 5.9 1.25 5.82 1.36L5.77 1.44L1.06 9.8C0.98 10.01 0.98 10.25 1.07 10.47C1.16 10.68 1.33 10.85 1.54 10.94L1.73 10.99L11.24 10.99L11.21 11ZM6 8.75C6 8.62 6.05 8.5 6.14 8.4C6.24 8.31 6.36 8.26 6.49 8.26C6.55 8.26 6.62 8.27 6.67 8.29C6.73 8.32 6.79 8.35 6.83 8.4C6.88 8.44 6.91 8.5 6.94 8.56C6.96 8.62 6.98 8.68 6.98 8.75C6.98 8.88 6.92 9 6.83 9.1C6.74 9.19 6.62 9.24 6.49 9.24C6.36 9.24 6.24 9.19 6.14 9.1C6.05 9 6 8.88 6 8.75L6 8.75ZM6 6.92L6 4.81C6 4.68 6.06 4.56 6.15 4.46C6.24 4.37 6.37 4.32 6.5 4.32C6.61 4.32 6.73 4.36 6.81 4.44C6.9 4.52 6.96 4.63 6.98 4.75L6.98 6.86C6.98 6.92 6.96 6.99 6.94 7.05C6.92 7.11 6.88 7.16 6.83 7.21C6.79 7.26 6.74 7.29 6.68 7.32C6.62 7.34 6.55 7.35 6.49 7.35C6.37 7.35 6.26 7.31 6.17 7.23C6.08 7.15 6.02 7.04 6.01 6.92L6 6.92Z" fill="#FF4A33" fill-opacity="1.000000" fill-rule="nonzero"/>
</svg>
