<svg width="34.000000" height="34.000000" viewBox="0 0 34 34" fill="none" xmlns="http://www.w3.org/2000/svg" xmlns:xlink="http://www.w3.org/1999/xlink">
	<desc>
			Created with Pixso.
	</desc>
	<defs>
		<clipPath id="clip3_1142">
			<rect id="Редактировать" rx="5.500000" width="33.000000" height="33.000000" transform="translate(0.500000 0.500000)" fill="white" fill-opacity="0"/>
		</clipPath>
	</defs>
	<rect id="Редактировать" rx="5.500000" width="33.000000" height="33.000000" transform="translate(0.500000 0.500000)" fill="#FFFFFF" fill-opacity="1.000000"/>
	<g clip-path="url(#clip3_1142)">
		<path id="Stroke_1-23_2_" d="M22.36 15.05C22.36 15.05 21.98 20.11 21.68 22.3C21.68 23.21 20.85 23.96 19.94 23.96C19.94 23.96 19.94 23.96 19.86 23.96C17.9 23.96 15.94 24.04 13.98 23.96C13.07 23.96 12.31 23.28 12.24 22.38C12.01 20.19 11.56 15.13 11.56 15.13" stroke="#828D99" stroke-opacity="1.000000" stroke-width="1.000000" stroke-linejoin="round" stroke-linecap="round"/>
		<path id="Stroke_3-21_2_" d="M23.41 12.56L10.58 12.56" stroke="#828D99" stroke-opacity="1.000000" stroke-width="1.000000" stroke-linejoin="round" stroke-linecap="round"/>
		<path id="Stroke_5-15_2_" d="M20.92 12.56C20.32 12.56 19.79 12.11 19.71 11.58L19.56 10.67C19.49 10.22 19.03 10 18.66 10L15.41 10C14.96 10 14.58 10.3 14.5 10.67L14.28 11.58C14.13 12.18 13.67 12.56 13.07 12.56" stroke="#828D99" stroke-opacity="1.000000" stroke-width="1.000000" stroke-linejoin="round" stroke-linecap="round"/>
	</g>
</svg>
