<svg width="34.000000" height="34.000000" viewBox="0 0 34 34" fill="none" xmlns="http://www.w3.org/2000/svg" xmlns:xlink="http://www.w3.org/1999/xlink">
	<desc>
			Created with Pixso.
	</desc>
	<defs>
		<clipPath id="clip3_1137">
			<rect id="Редактировать" rx="5.500000" width="33.000000" height="33.000000" transform="translate(0.500000 0.500000)" fill="white" fill-opacity="0"/>
		</clipPath>
	</defs>
	<rect id="Редактировать" rx="5.500000" width="33.000000" height="33.000000" transform="translate(0.500000 0.500000)" fill="#FFFFFF" fill-opacity="1.000000"/>
	<g clip-path="url(#clip3_1137)">
		<path id="Stroke_1-50_2_" d="M18.34 24L24 24" stroke="#828D99" stroke-opacity="1.000000" stroke-width="1.000000" stroke-linejoin="round" stroke-linecap="round"/>
		<path id="Stroke_3-46_2_" d="M20.02 10.38L20.11 10.47L21.34 11.45C22.14 11.99 22.4 13.07 21.87 13.87L21.79 13.96L14.54 23.46C14.27 23.82 13.92 24 13.48 24L10.65 24L10.03 21.22C9.94 20.86 10.03 20.41 10.29 20.05L17.63 10.65C18.25 9.93 19.31 9.75 20.02 10.38Z" stroke="#828D99" stroke-opacity="1.000000" stroke-width="1.000000" stroke-linejoin="round"/>
		<path id="Stroke_5-31_2_" d="M16.3 12.35L20.55 15.75" stroke="#828D99" stroke-opacity="1.000000" stroke-width="1.000000" stroke-linejoin="round" stroke-linecap="round"/>
	</g>
</svg>
