<svg width="100.000000" height="100.000000" viewBox="0 0 100 100" fill="none" xmlns="http://www.w3.org/2000/svg" xmlns:xlink="http://www.w3.org/1999/xlink">
	<desc>
			Created with Pixso.
	</desc>
	<defs>
		<filter id="filter_7150_2247_dd" x="0.000000" y="0.000000" width="100.000000" height="100.000000" filterUnits="userSpaceOnUse" color-interpolation-filters="sRGB">
			<feFlood flood-opacity="0" result="BackgroundImageFix"/>
			<feColorMatrix in="SourceAlpha" type="matrix" values="0 0 0 0 0 0 0 0 0 0 0 0 0 0 0 0 0 0 127 0" result="hardAlpha"/>
			<feOffset dx="0" dy="10"/>
			<feGaussianBlur stdDeviation="6.66667"/>
			<feComposite in2="hardAlpha" operator="out" k2="-1" k3="1"/>
			<feColorMatrix type="matrix" values="0 0 0 0 1 0 0 0 0 0.2902 0 0 0 0 0.2 0 0 0 0.3 0"/>
			<feBlend mode="normal" in2="BackgroundImageFix" result="effect_dropShadow_1"/>
			<feBlend mode="normal" in="SourceGraphic" in2="effect_dropShadow_1" result="shape"/>
			<feColorMatrix in="SourceAlpha" type="matrix" values="0 0 0 0 0 0 0 0 0 0 0 0 0 0 0 0 0 0 127 0" result="hardAlpha"/>
			<feOffset dx="0" dy="1"/>
			<feGaussianBlur stdDeviation="0.666667"/>
			<feComposite in2="hardAlpha" operator="arithmetic" k2="-1" k3="1"/>
			<feColorMatrix type="matrix" values="0 0 0 0 1 0 0 0 0 1 0 0 0 0 1 0 0 0 0.5 0"/>
			<feBlend mode="normal" in2="shape" result="effect_innerShadow_2"/>
			<feColorMatrix in="SourceAlpha" type="matrix" values="0 0 0 0 0 0 0 0 0 0 0 0 0 0 0 0 0 0 127 0" result="hardAlpha"/>
			<feOffset dx="0" dy="-2"/>
			<feGaussianBlur stdDeviation="0.666667"/>
			<feComposite in2="hardAlpha" operator="arithmetic" k2="-1" k3="1"/>
			<feColorMatrix type="matrix" values="0 0 0 0 1 0 0 0 0 0.2902 0 0 0 0 0.2 0 0 0 0.3 0"/>
			<feBlend mode="normal" in2="effect_innerShadow_2" result="effect_innerShadow_3"/>
			<feColorMatrix in="SourceAlpha" type="matrix" values="0 0 0 0 0 0 0 0 0 0 0 0 0 0 0 0 0 0 127 0" result="hardAlpha"/>
			<feOffset dx="0" dy="-15"/>
			<feGaussianBlur stdDeviation="6.66667"/>
			<feComposite in2="hardAlpha" operator="arithmetic" k2="-1" k3="1"/>
			<feColorMatrix type="matrix" values="0 0 0 0 1 0 0 0 0 0.2902 0 0 0 0 0.2 0 0 0 0.3 0"/>
			<feBlend mode="normal" in2="effect_innerShadow_3" result="effect_innerShadow_4"/>
		</filter>
		<filter id="filter_7150_2248_dd" x="25.475586" y="23.000000" width="49.048828" height="50.000000" filterUnits="userSpaceOnUse" color-interpolation-filters="sRGB">
			<feFlood flood-opacity="0" result="BackgroundImageFix"/>
			<feColorMatrix in="SourceAlpha" type="matrix" values="0 0 0 0 0 0 0 0 0 0 0 0 0 0 0 0 0 0 127 0" result="hardAlpha"/>
			<feOffset dx="0" dy="8"/>
			<feGaussianBlur stdDeviation="5"/>
			<feComposite in2="hardAlpha" operator="out" k2="-1" k3="1"/>
			<feColorMatrix type="matrix" values="0 0 0 0 0 0 0 0 0 0 0 0 0 0 0 0 0 0 0.1 0"/>
			<feBlend mode="normal" in2="BackgroundImageFix" result="effect_dropShadow_1"/>
			<feBlend mode="normal" in="SourceGraphic" in2="effect_dropShadow_1" result="shape"/>
			<feColorMatrix in="SourceAlpha" type="matrix" values="0 0 0 0 0 0 0 0 0 0 0 0 0 0 0 0 0 0 127 0" result="hardAlpha"/>
			<feOffset dx="0" dy="-1"/>
			<feGaussianBlur stdDeviation="0.333333"/>
			<feComposite in2="hardAlpha" operator="arithmetic" k2="-1" k3="1"/>
			<feColorMatrix type="matrix" values="0 0 0 0 1 0 0 0 0 1 0 0 0 0 1 0 0 0 0.3 0"/>
			<feBlend mode="normal" in2="shape" result="effect_innerShadow_2"/>
			<feColorMatrix in="SourceAlpha" type="matrix" values="0 0 0 0 0 0 0 0 0 0 0 0 0 0 0 0 0 0 127 0" result="hardAlpha"/>
			<feOffset dx="0" dy="1"/>
			<feGaussianBlur stdDeviation="0.333333"/>
			<feComposite in2="hardAlpha" operator="arithmetic" k2="-1" k3="1"/>
			<feColorMatrix type="matrix" values="0 0 0 0 0 0 0 0 0 0 0 0 0 0 0 0 0 0 0.1 0"/>
			<feBlend mode="normal" in2="effect_innerShadow_2" result="effect_innerShadow_3"/>
		</filter>
	</defs>
	<rect id="Frame 2146" rx="39.500000" width="79.000000" height="79.000000" transform="translate(10.500000 0.500000)" fill="#FFE9E6" fill-opacity="1.000000"/>
	<g filter="url(#filter_7150_2247_dd)">
		<rect id="Frame 2146" rx="29.500000" width="59.000000" height="59.000000" transform="translate(20.500000 10.500000)" fill="#FF4A33" fill-opacity="1.000000"/>
		<g filter="url(#filter_7150_2248_dd)">
			<path id="Stroke_1-23_2_ (Stroke)" d="M57.61 37.2L57.53 38.27L56.46 38.19L55.39 38.11L55.47 37.04L57.61 37.2ZM56.72 46.97C56.91 45.62 57.11 43.46 57.26 41.65C57.34 40.72 57.41 39.88 57.46 39.27C57.48 38.96 57.5 38.71 57.51 38.54L57.53 38.27C57.53 38.27 57.53 38.27 56.46 38.19L55.39 38.11L55.37 38.38C55.35 38.55 55.34 38.79 55.31 39.1C55.26 39.71 55.2 40.54 55.12 41.46C54.96 43.31 54.76 45.46 54.58 46.74L54.57 46.82L54.57 46.89C54.57 47.33 54.12 47.81 53.57 47.81L53.48 47.81C52.67 47.81 51.87 47.82 51.08 47.83C49.53 47.85 48.01 47.87 46.48 47.81L46.46 47.81L46.43 47.81C45.9 47.81 45.47 47.42 45.43 46.89L45.43 46.88L45.43 46.87C45.29 45.56 45.09 43.39 44.92 41.55C44.84 40.63 44.76 39.79 44.71 39.18C44.68 38.87 44.66 38.62 44.64 38.45L44.62 38.19L44.52 37.12L42.38 37.31L42.47 38.38L43.54 38.28C42.47 38.38 42.47 38.38 42.47 38.38L42.5 38.64C42.51 38.82 42.53 39.06 42.56 39.37C42.62 39.98 42.69 40.82 42.78 41.74C42.95 43.58 43.15 45.76 43.29 47.08C43.43 48.72 44.79 49.94 46.41 49.95C48 50.02 49.61 49.99 51.18 49.97C51.96 49.96 52.73 49.95 53.48 49.95L53.57 49.95C55.17 49.95 56.68 48.66 56.72 46.97Z" fill="#FFFFFF" fill-opacity="1.000000" fill-rule="evenodd"/>
			<path id="Stroke_3-21_2_ (Stroke)" d="M40.47 33.35L59.52 33.35L59.52 35.64L40.47 35.64L40.47 33.35Z" fill="#FFFFFF" fill-opacity="1.000000" fill-rule="evenodd"/>
			<path id="Stroke_5-15_2_ (Stroke)" d="M45.63 31.77C45.86 30.7 46.87 30 47.92 30L52.16 30C52.97 30 54.25 30.48 54.47 31.84L54.67 33.02C54.67 33.03 54.67 33.04 54.67 33.05C54.68 33.07 54.7 33.15 54.8 33.23C54.9 33.31 55.01 33.35 55.12 33.35L56.26 33.35L56.26 35.63L55.12 35.63C53.82 35.63 52.61 34.68 52.41 33.39L52.23 32.29C52.23 32.29 52.23 32.29 52.22 32.29C52.2 32.28 52.17 32.28 52.16 32.28L47.92 32.28C47.89 32.28 47.87 32.29 47.85 32.3C47.85 32.3 47.85 32.3 47.85 32.3L47.55 33.49L46.44 33.21L47.55 33.49C47.24 34.74 46.22 35.63 44.87 35.63L43.72 35.63L43.72 33.35L44.87 33.35C45.09 33.35 45.25 33.25 45.33 32.93L45.63 31.77Z" fill="#FFFFFF" fill-opacity="1.000000" fill-rule="evenodd"/>
		</g>
	</g>
</svg>
